<?xml version="1.0" encoding="UTF-8" standalone="no"?>
<!-- Created with Inkscape (http://www.inkscape.org/) -->

<svg
   width="415.61087"
   height="305.65607"
   viewBox="0 0 109.96371 80.871503"
   version="1.1"
   id="svg95"
   inkscape:version="1.1.2 (0a00cf5339, 2022-02-04)"
   sodipodi:docname="chantico.svg"
   xmlns:inkscape="http://www.inkscape.org/namespaces/inkscape"
   xmlns:sodipodi="http://sodipodi.sourceforge.net/DTD/sodipodi-0.dtd"
   xmlns="http://www.w3.org/2000/svg"
   xmlns:svg="http://www.w3.org/2000/svg">
  <sodipodi:namedview
     id="namedview97"
     pagecolor="#ffffff"
     bordercolor="#666666"
     borderopacity="1.0"
     inkscape:pageshadow="2"
     inkscape:pageopacity="0.0"
     inkscape:pagecheckerboard="0"
     inkscape:document-units="mm"
     showgrid="false"
     units="px"
     inkscape:zoom="0.54476566"
     inkscape:cx="688.36938"
     inkscape:cy="50.480421"
     inkscape:window-width="1471"
     inkscape:window-height="1088"
     inkscape:window-x="26"
     inkscape:window-y="23"
     inkscape:window-maximized="0"
     inkscape:current-layer="layer1"
     fit-margin-top="0"
     fit-margin-left="0"
     fit-margin-right="0"
     fit-margin-bottom="0" />
  <defs
     id="defs92" />
  <g
     inkscape:label="Layer 1"
     inkscape:groupmode="layer"
     id="layer1"
     transform="translate(28.419226,-168.48369)">
    <path
       style="fill:#000000;stroke-width:0.106744"
       d="m 52.048455,249.17283 c -0.564499,-0.3087 -0.745606,-0.62787 -0.822303,-1.44919 l -0.06843,-0.73285 -0.573466,-0.25361 c -0.315406,-0.13949 -0.627192,-0.25362 -0.692859,-0.25362 -0.06567,0 -0.31661,0.16161 -0.557654,0.35912 -1.104576,0.90512 -1.664128,1.02593 -2.369755,0.51166 -0.658492,-0.47993 -3.026551,-2.79312 -3.197207,-3.12313 -0.186532,-0.36071 -0.194526,-0.9233 -0.01736,-1.22179 0.07131,-0.12014 0.333797,-0.48477 0.583312,-0.81029 0.249516,-0.32551 0.453665,-0.63391 0.453665,-0.68532 0,-0.0514 -0.07858,-0.29923 -0.174619,-0.55071 l -0.17462,-0.45723 -0.812768,-2.2e-4 c -1.28149,-2.1e-4 -1.890395,-0.42842 -1.97302,-1.38746 -0.148818,-1.50068 0.121643,-2.95086 0.02455,-4.25081 0.0075,-0.60278 0.288411,-1.20876 0.630831,-1.36059 0.101554,-0.045 0.664366,-0.13385 1.250694,-0.19739 0.802725,-0.087 1.072452,-0.15508 1.091965,-0.27565 0.03192,-0.19722 -0.851453,-1.85378 -0.851453,-1.85378 -0.228437,-1.12489 0.198568,-1.5244 0.4403,-2.31937 0.02463,-0.0739 0.235077,-0.34078 0.467664,-0.59311 l 0.422887,-0.45878 -0.383821,-0.52287 c -0.869186,-1.18406 -1.364176,-1.93831 -2.79641,-2.17635 -2.331406,-0.68752 -1.412453,-4.13561 -1.212178,-5.68566 0.0649,-0.70452 0.161807,-1.51415 0.215339,-1.7992 0.109318,-0.58208 0.12253,-0.54826 -0.526032,-1.34661 -0.52663,-0.64827 -1.32874,-1.86726 -1.592179,-2.4197 -0.09411,-0.19735 -0.198739,-0.35882 -0.23251,-0.35882 -0.03377,0 -0.146264,0.46834 -0.249985,1.04076 -0.368046,2.03118 -0.946861,4.23089 -1.20383,4.575 -0.537743,0.72009 -1.402611,0.85596 -2.579157,0.40517 -0.39763,-0.15235 -1.179296,-0.43674 -1.737036,-0.63198 -2.531306,-0.8861 -4.632814,-1.70898 -5.193543,-2.03362 -0.572354,-0.33137 -0.891684,-0.96414 -0.88879,-1.76118 0.0025,-0.67247 0.336209,-1.66081 1.21641,-3.60199 0.327699,-0.7227 0.97958,-2.33924 1.448624,-3.59231 l 0.852808,-2.27831 -0.265524,-0.6004 c -0.37148,-0.83998 -0.58581,-2.21055 -0.58581,-3.74606 0,-2.49236 0.346846,-4.85519 0.845751,-5.76154 l 0.293793,-0.53372 -0.192712,-0.74721 c -0.105992,-0.41096 -0.268342,-1.32332 -0.360777,-2.02747 -0.02224,-6.79485 2.079751,-14.34107 6.878191,-17.98758 2.368908,-1.80684 5.660273,-3.44431 8.871833,-4.41379 3.495284,-1.05512 7.179248,-1.50275 10.296681,-1.25113 6.28903,0.5076 12.278543,2.85241 16.618938,6.50606 2.870831,2.41661 4.931385,5.92632 5.742093,9.78042 0.145878,0.69351 0.245831,1.66576 0.285328,2.77536 0.07101,1.99481 -0.08357,3.41792 -0.610629,5.62173 l -0.341579,1.42827 0.485742,1.01165 c 0.562554,1.17162 0.689135,1.88582 0.784715,4.42747 0.07896,2.09966 -0.136134,4.01052 -0.549777,4.88415 -0.286861,0.60586 -0.287769,0.61502 -0.105678,1.06581 0.275963,0.68319 1.813956,4.94558 2.398026,6.64589 0.823837,2.3983 0.960645,3.43912 0.605097,4.60338 -0.391284,1.28128 -1.409976,2.30833 -3.162782,3.18872 -2.158143,1.08398 -3.457192,1.1679 -5.106685,0.32987 -1.132588,-0.5754 -1.87547,-1.47636 -2.277324,-2.76188 -0.166828,-0.53368 -0.832543,-4.11901 -0.834758,-4.49573 -3.19e-4,-0.053 -0.267766,0.33128 -0.594342,0.85395 -0.326576,0.52266 -0.885148,1.3281 -1.241276,1.78985 l -0.647499,0.83954 0.05938,0.60151 c 0.221914,2.24802 0.43298,3.81324 0.521693,3.86874 0.366912,1.56585 0.292525,1.94831 -1.334003,3.2993 -0.271143,0.12745 -1.066267,0.7351 -1.766936,1.35032 l -1.273951,1.11858 0.465631,0.4292 c 0.591998,0.54569 0.900491,1.32904 0.900491,2.28662 0,0.79248 -0.123551,1.08799 -0.834209,1.99534 l -0.483229,0.61697 0.176644,0.37042 0.17664,0.37041 0.828996,0.002 c 0.455948,8e-4 0.947642,0.0616 1.092652,0.13498 0.404384,0.20462 0.717347,0.75636 0.798794,1.40821 0.06115,1.68927 -0.05321,2.25291 0.03413,4.22044 -0.08653,0.90054 -0.63231,1.27985 -1.841536,1.27985 h -0.69843 l -0.287745,0.58671 -0.287748,0.5867 0.385249,0.40068 c 0.93883,0.97644 1.167901,1.73319 0.738028,2.43814 -0.228866,0.37531 -2.761857,2.74201 -3.259396,3.04541 -0.37208,0.2269 -0.969492,0.25635 -1.293933,0.0638 -0.120142,-0.0713 -0.490411,-0.33805 -0.822816,-0.59277 -0.529956,-0.4061 -0.647588,-0.45364 -0.955323,-0.38605 -0.761783,0.16732 -1.027959,0.37103 -1.096432,0.83912 -0.128029,0.87522 -0.298609,1.33236 -0.607776,1.62877 l -0.315699,0.30268 -2.048051,0.0315 c -1.845399,0.0284 -2.084678,0.0115 -2.418222,-0.17094 z m 3.024874,-2.71596 c 0.03538,-0.13209 0.06529,-0.40829 0.06642,-0.61377 0.0032,-0.56609 0.186645,-1.11216 0.454362,-1.35187 0.132189,-0.11836 0.518454,-0.27478 0.858368,-0.3476 0.339917,-0.0728 0.940355,-0.29575 1.334306,-0.49541 0.393955,-0.19965 0.852243,-0.3639 1.018421,-0.365 0.307175,-0.002 1.259932,0.56165 1.617895,0.9572 0.107014,0.11825 0.277078,0.215 0.377919,0.215 0.267644,0 1.105912,-0.94042 0.980816,-1.10034 -0.05473,-0.07 -0.34651,-0.43705 -0.648387,-0.81572 -0.440161,-0.55213 -0.548865,-0.76758 -0.548865,-1.08783 0,-0.21964 0.04895,-0.42959 0.108772,-0.46657 0.183192,-0.11321 0.601886,-1.02481 0.842795,-1.83495 0.172081,-0.57869 0.304903,-0.82308 0.537222,-0.98851 0.330558,-0.23538 1.163335,-0.43099 1.834859,-0.43099 h 0.412408 v -0.74986 c 0,-0.70669 -0.01577,-0.75584 -0.273809,-0.85395 -0.150593,-0.0573 -0.441553,-0.1041 -0.646571,-0.1041 -0.518551,0 -1.221532,-0.19054 -1.512149,-0.40985 -0.15449,-0.11659 -0.305185,-0.41842 -0.410024,-0.82126 -0.09117,-0.35031 -0.329505,-0.99194 -0.529633,-1.42586 -0.200128,-0.43391 -0.36387,-0.89677 -0.36387,-1.02859 0,-0.21804 0.500585,-1.03711 1.091284,-1.78558 l 0.232044,-0.29402 -0.416015,-0.42604 c -0.624765,-0.63982 -0.709158,-0.63674 -1.51991,0.0554 -0.993409,0.84803 -1.067517,0.86583 -2.042912,0.49069 -0.447528,-0.17213 -1.045258,-0.34735 -1.328286,-0.38939 -0.755582,-0.11221 -1.094637,-0.44609 -1.27427,-1.25482 l -0.147293,-0.66312 h -0.785869 -0.785868 l -0.173409,0.71129 c -0.251813,1.0329 -0.220692,1.00856 -1.762665,1.37916 -0.293547,0.0705 -0.764202,0.2244 -1.0459,0.34189 -0.703268,0.29331 -1.133082,0.15179 -2.042803,-0.67264 -0.387741,-0.35139 -0.74206,-0.63888 -0.787375,-0.63888 -0.139416,0 -0.980799,0.90661 -0.980799,1.05683 0,0.0778 0.222761,0.43623 0.495024,0.79655 0.272263,0.36031 0.562102,0.81358 0.644087,1.00727 0.140175,0.33115 0.127064,0.40117 -0.219854,1.17419 -0.202905,0.45212 -0.442829,1.11024 -0.533166,1.4625 -0.248917,0.97063 -0.807247,1.33236 -2.058587,1.33371 -0.939413,0.001 -0.990933,0.0838 -0.821492,1.32001 l 0.06788,0.49524 h 0.789503 c 1.272881,0 1.683697,0.26162 2.011427,1.28094 0.103819,0.3229 0.350166,0.91013 0.547436,1.30495 0.505551,1.01183 0.481141,1.19557 -0.287299,2.16256 -0.724927,0.91225 -0.735587,1.02506 -0.145789,1.54291 0.379753,0.33342 0.722492,0.4185 0.850644,0.21115 0.167312,-0.27072 1.37366,-1.05853 1.620883,-1.05853 0.14773,0 0.544545,0.14022 0.881811,0.31161 0.337265,0.17138 0.946682,0.41092 1.354258,0.5323 0.994377,0.29614 1.17416,0.50878 1.369729,1.62006 0.08696,0.49417 0.158183,0.91049 0.158263,0.92517 8.1e-5,0.0147 0.330788,0.0267 0.73491,0.0267 0.671738,0 0.740279,-0.0206 0.799122,-0.24017 z m -1.95484,-3.92542 c -1.951263,-0.41182 -3.703062,-2.09741 -4.227476,-4.06771 -0.224702,-0.84424 -0.198451,-2.27822 0.05684,-3.10475 0.83826,-2.71398 3.875515,-4.46268 6.543875,-3.76766 2.092515,0.54503 3.894263,2.29743 4.336539,4.21778 0.06085,0.26419 0.111802,0.87815 0.113238,1.36436 0.0068,2.2955 -1.405619,4.23311 -3.755296,5.15175 -0.651776,0.25482 -2.309483,0.36626 -3.06772,0.20623 z m 2.162879,-3.15632 c 0.595439,-0.20288 1.256172,-0.89828 1.441623,-1.51726 0.638934,-2.13257 -1.467963,-4.01079 -3.45041,-3.07592 -0.636016,0.29993 -0.92592,0.59508 -1.218591,1.24065 -0.566566,1.24971 -0.06492,2.62271 1.186008,3.24607 0.649025,0.32342 1.304327,0.3576 2.04137,0.10646 z m 5.143096,-13.3772 c 0.821932,-0.66517 2.178924,-1.76106 3.015534,-2.43532 l 1.521109,-1.22593 -0.0094,-0.60247 c -0.0052,-0.33136 -0.04117,-0.83378 -0.08006,-1.11649 l -0.07071,-0.51401 -0.635993,0.49461 c -2.116383,1.64586 -4.798268,2.8619 -7.345985,3.33088 -1.348245,0.24818 -4.045877,0.24423 -5.41446,-0.008 -2.514918,-0.46338 -5.212244,-1.71482 -7.234655,-3.35654 -0.251005,-0.20376 -0.49118,-0.33578 -0.533722,-0.29337 -0.04254,0.0424 -0.0934,0.56622 -0.113025,1.16405 l -0.03568,1.08697 1.156496,0.82344 c 0.636071,0.4529 1.636845,1.25408 2.22394,1.7804 0.587095,0.52633 1.380037,1.17638 1.762093,1.44457 0.678899,0.47655 0.718049,0.48914 1.726838,0.55541 l 1.03219,0.0678 0.07412,-0.41588 c 0.105025,-0.58927 0.420287,-1.06067 0.822986,-1.2306 0.482096,-0.20343 3.940791,-0.20561 4.421273,-0.003 0.358464,0.15132 0.580527,0.56293 0.720861,1.33619 l 0.07476,0.41194 0.713503,-0.0428 0.713503,-0.0428 1.494425,-1.20939 z m -3.630023,-5.18295 c 1.649081,-0.31552 3.296056,-1.04059 4.772564,-2.1011 3.773137,-2.71006 5.89681,-5.614 6.740678,-9.2173 0.54038,-2.30741 1.322666,-8.02446 1.562877,-11.42167 0.173263,-2.45043 0.143852,-3.54028 -0.109684,-4.06401 -1.079782,-2.23053 -6.648527,-4.41566 -12.37863,-4.85726 -2.253363,-0.17366 -6.332099,-0.0698 -8.169319,0.20805 -4.859231,0.73484 -8.086111,2.00513 -9.802215,3.85873 -0.708008,0.76473 -0.814117,1.08935 -0.814909,2.49303 -7.66e-4,1.23483 0.348934,5.23926 0.644223,7.37846 0.718748,5.20692 0.940333,6.36077 1.547699,8.05921 1.081125,3.02326 3.357372,5.76927 6.613907,7.97884 1.466998,0.99537 3.117603,1.59448 5.053842,1.83435 1.046311,0.12963 3.283392,0.0526 4.338967,-0.14933 z m -5.003548,-4.23025 c -0.444831,-0.12351 -0.813318,-0.51044 -0.813318,-0.85401 0,-0.38413 0.45875,-0.91992 0.887504,-1.03654 0.187031,-0.0509 1.403774,-0.0701 2.703868,-0.0428 2.210122,0.0465 2.382328,0.0645 2.648585,0.27677 0.426279,0.33991 0.487663,0.99403 0.132084,1.40747 l -0.269053,0.31283 -2.491085,0.0108 c -1.370096,0.006 -2.62946,-0.0276 -2.798585,-0.0746 z m -4.443702,-3.35338 c -0.183291,-0.22085 -0.159728,-0.75428 0.04727,-1.0702 0.171304,-0.26145 1.105079,-0.93653 1.768452,-1.27853 0.573936,-0.29589 1.797999,-0.5816 2.500472,-0.58363 0.408176,-0.001 0.918125,0.0968 1.438083,0.27624 0.94376,0.32574 1.261021,0.31139 2.669738,-0.12074 l 0.972469,-0.29831 0.933065,0.22852 c 1.085926,0.26597 2.499041,0.93026 3.002652,1.41154 0.690922,0.66028 0.781338,1.39976 0.18932,1.54834 -0.133882,0.0336 -0.792981,-0.0731 -1.464655,-0.23713 -1.290145,-0.31507 -1.046461,-0.30441 -5.277523,-0.23074 -0.293545,0.005 -1.254248,-0.026 -2.13489,-0.0692 -1.323184,-0.0649 -1.730894,-0.0476 -2.34838,0.0995 -0.410967,0.0979 -0.987387,0.22402 -1.280935,0.28028 -0.293547,0.0563 -0.611003,0.12658 -0.705455,0.15627 -0.09445,0.0297 -0.233811,-0.0208 -0.309687,-0.11224 z m 5.626505,-4.90931 c -0.505845,-0.26844 -0.939566,-0.40502 -1.537198,-0.48409 -2.376931,-0.31449 -3.017008,-0.63419 -3.390791,-1.6936 -0.511425,-1.44953 0.181732,-3.16919 1.427933,-3.54256 l 0.421006,-0.12613 0.0878,-0.8127 c 0.04829,-0.44698 0.0878,-1.43715 0.0878,-2.20037 0,-1.30525 -0.01571,-1.40987 -0.264525,-1.76129 -0.363641,-0.51359 -0.627613,-0.71465 -1.096468,-0.83513 l -0.400292,-0.10286 v 0.35395 c 0,0.45815 -0.548285,1.1831 -1.120818,1.48197 -1.253605,0.65441 -2.95143,-0.22546 -3.359523,-1.741 -0.06816,-0.25313 -0.100825,-0.52044 -0.07259,-0.59403 0.03789,-0.0987 -0.20484,-0.1494 -0.926888,-0.19339 -1.144103,-0.0697 -1.493463,-0.1832 -1.965615,-0.63863 -0.429183,-0.41397 -0.437366,-0.64078 -0.03349,-0.92837 1.115597,-0.79437 2.624655,-1.18977 4.534379,-1.18809 1.154748,0.001 1.467093,0.0463 2.979049,0.43208 0.928977,0.23702 1.841642,0.43076 2.028147,0.43054 0.417763,-4.1e-4 0.982363,-0.32221 1.406543,-0.80147 0.296223,-0.33468 0.33624,-0.34986 0.533722,-0.20239 0.203003,0.15159 0.213489,0.28373 0.213489,2.69005 0,1.39184 -0.02377,3.81759 -0.05282,5.39056 -0.06009,3.25334 8.47e-4,3.07845 -0.994304,2.85544 -0.85471,-0.19154 -1.414049,0.2917 -1.147895,0.99174 0.137133,0.36069 0.184909,0.38061 1.321807,0.55128 0.549549,0.0825 1.248817,0.24839 1.553932,0.36866 0.662362,0.26108 1.231186,0.27811 1.66766,0.0499 0.493307,-0.25788 1.425343,-0.47175 2.055878,-0.47175 0.31348,0 0.711687,-0.0733 0.884902,-0.16286 0.265349,-0.13721 0.314932,-0.22704 0.314932,-0.57055 0,-0.59625 -0.222903,-0.74446 -1.176895,-0.78254 l -0.797883,-0.0318 -0.02062,-1.68467 c -0.01134,-0.92657 -0.07137,-2.40746 -0.133427,-3.29089 -0.198199,-2.82151 -0.09715,-5.54543 0.219902,-5.92744 0.0989,-0.11918 0.21861,-0.0477 0.644114,0.38457 0.783149,0.7956 1.056918,0.83627 2.613377,0.38823 1.976875,-0.56906 2.446524,-0.64537 3.935269,-0.63942 1.275533,0.005 1.469448,0.0334 2.399523,0.35006 0.99587,0.33908 2.002176,0.84157 2.226394,1.11173 0.08325,0.10031 0.06427,0.21396 -0.06989,0.41847 -0.462964,0.70575 -1.284376,1.00499 -2.482887,0.90451 l -0.738839,-0.0619 -0.0024,0.50083 c -0.0047,1.0041 -0.564616,1.73928 -1.627489,2.13695 -1.110528,0.41551 -2.279612,-0.14367 -2.918562,-1.39595 -0.142291,-0.27887 -0.296528,-0.50703 -0.342754,-0.50703 -0.04623,0 -0.312347,0.14478 -0.591373,0.32173 -0.767197,0.48654 -0.868663,0.80199 -0.857915,2.66711 0.0049,0.85129 0.0431,1.81718 0.08487,2.14642 0.0735,0.57933 0.08906,0.60254 0.482693,0.72048 0.804027,0.24089 1.279248,0.84637 1.510458,1.92448 0.146264,0.68201 -0.01864,1.61866 -0.381565,2.16705 -0.395682,0.59792 -0.968702,0.83671 -2.558646,1.06623 -1.113187,0.16069 -1.532409,0.27275 -2.135836,0.57091 -1.004451,0.49631 -1.495749,0.49571 -2.435466,-0.003 z m 23.959808,9.53499 c 0.991024,-0.47063 1.330579,-0.82127 1.476391,-1.52458 0.150259,-0.72477 -0.0604,-1.50295 -1.344836,-4.96784 -0.554969,-1.4971 -1.0857,-2.93165 -1.1794,-3.1879 l -0.170362,-0.4659 -0.440157,0.0692 c -0.242091,0.038 -1.053485,0.0985 -1.8031,0.13441 l -1.362935,0.0652 0.05428,0.3315 c 0.02985,0.18233 0.153301,1.12408 0.274322,2.09279 0.289657,2.31851 1.301648,6.82923 1.631443,7.2718 0.07102,0.0953 0.296406,0.27809 0.500851,0.40618 0.54281,0.34007 1.332015,0.26499 2.3635,-0.22486 z m -41.702813,-2.84937 c 0.09052,-0.6027 0.330212,-1.82506 0.532638,-2.71636 0.403152,-1.7751 0.695888,-3.4543 0.696559,-3.9956 l 4.43e-4,-0.34692 -0.667153,-8.1e-4 c -0.595158,-8e-4 -2.111673,-0.20153 -2.868704,-0.37995 -0.269449,-0.0635 -0.288801,-0.0361 -0.506692,0.71775 -0.354606,1.22684 -0.917298,2.84317 -1.294772,3.71925 -0.546205,1.26766 -0.853862,2.0583 -0.853862,2.19431 0,0.26448 0.926029,0.7172 2.592465,1.26742 1.592622,0.52584 2.119433,0.68268 2.181085,0.64934 0.01288,-0.007 0.09748,-0.50579 0.188008,-1.10849 z m 0.97663,-11.14186 c -0.08329,-1.39695 -0.711589,-7.79832 -0.771705,-7.86249 -0.02239,-0.0239 -0.435015,0.0123 -0.916944,0.0804 -0.711483,0.10062 -0.934241,0.17904 -1.184738,0.41707 -0.469394,0.44603 -0.582496,0.74217 -0.830731,2.17515 -0.293931,1.69677 -0.314101,3.42715 -0.05023,4.30918 0.513106,1.71512 0.984483,2.03636 3.036001,2.06896 l 0.789946,0.0126 z m 38.765982,0.91294 c 0.893548,-0.43875 1.37079,-2.06046 1.250321,-4.2487 -0.177237,-3.21938 -0.550406,-4.04507 -1.974555,-4.36898 -1.119323,-0.25459 -1.137212,-0.24959 -1.213842,0.33937 -0.137591,1.05752 -0.708746,7.55797 -0.708746,8.06641 v 0.53201 l 1.127484,-0.0639 c 0.760993,-0.0431 1.254856,-0.12639 1.519338,-0.25626 z m -40.275309,-11.57632 0.664045,-0.12235 0.06798,-1.1319 c 0.03739,-0.62254 0.183204,-1.59101 0.324029,-2.15215 0.260324,-1.03732 0.860307,-2.61308 1.03638,-2.72191 0.231086,-0.14281 0.02701,-0.38917 -1.104011,-1.3328 -0.660482,-0.55105 -1.456705,-1.21671 -1.769383,-1.47924 -0.67442,-0.56625 -0.663688,-0.57484 -0.987082,0.79 -0.287449,1.21316 -0.380865,3.19576 -0.216452,4.59387 0.134402,1.1429 0.482357,2.96783 0.649885,3.40846 0.11897,0.31291 0.319196,0.33512 1.334607,0.14802 z m 40.497147,-0.59817 c 0.456904,-1.45144 0.599158,-2.61723 0.589407,-4.83019 -0.0081,-1.84511 -0.03833,-2.1898 -0.265881,-3.03489 -0.141194,-0.52435 -0.307824,-0.9697 -0.370302,-0.98967 -0.08835,-0.0282 -2.724069,2.1096 -3.444217,2.79361 -0.117394,0.11151 -0.07687,0.26416 0.233957,0.88139 0.623031,1.23717 1.242277,3.70615 1.242313,4.95319 1.2e-5,0.35791 0.05526,0.64656 0.136687,0.71414 0.07517,0.0624 0.399402,0.13143 0.720527,0.15344 0.321121,0.022 0.661894,0.0489 0.757276,0.0598 0.126242,0.0144 0.235115,-0.17625 0.400233,-0.70078 z m -36.011362,-2.91117 c 0.213739,-0.34585 2.73525,-1.38088 4.825678,-1.98085 3.250414,-0.93291 5.508983,-1.28231 8.996266,-1.39171 6.05811,-0.19006 11.706878,0.91773 15.678982,3.07482 l 0.78812,0.428 -0.07206,-0.28711 c -0.243975,-0.97208 -2.144281,-3.03336 -3.815846,-4.1391 -2.208811,-1.46113 -4.602497,-2.42105 -7.295344,-2.92558 -1.182817,-0.22162 -4.985567,-0.31102 -6.317229,-0.14852 -4.547761,0.55495 -8.947283,2.48182 -11.327552,4.96117 -0.688862,0.71753 -1.729354,2.19557 -1.729354,2.45657 0,0.10326 0.196644,0.0683 0.268338,-0.0477 z m 0.494817,-5.70251 c 0.290214,-0.26093 1.041815,-0.79852 1.670225,-1.19466 0.628409,-0.39613 1.163389,-0.73586 1.188845,-0.75495 0.05003,-0.0375 -0.556991,-1.20206 -1.295952,-2.48623 -1.063401,-1.84797 -1.94771,-3.30908 -2.002766,-3.30908 -0.03242,0 -0.466724,0.32926 -0.965123,0.73168 -1.111974,0.89785 -2.513202,2.34835 -3.050907,3.15819 l -0.401296,0.6044 0.258939,0.25868 c 0.541618,0.54109 3.892453,3.45517 3.979313,3.46064 0.05008,0.003 0.328508,-0.20774 0.618722,-0.46867 z m 31.758517,-1.19528 c 1.046892,-0.88897 2.012209,-1.70557 2.145144,-1.81466 l 0.241703,-0.19834 -0.789879,-1.01407 c -0.434432,-0.55774 -0.975511,-1.19089 -1.2024,-1.40699 -0.463263,-0.44124 -2.518209,-2.11019 -2.60079,-2.11226 -0.02937,-8.1e-4 -0.226977,0.29843 -0.43916,0.66482 -0.212184,0.36639 -0.924718,1.57883 -1.583405,2.69431 -0.658691,1.11548 -1.239727,2.10548 -1.29119,2.2 -0.07564,0.13891 0.08458,0.27736 0.836194,0.72252 0.511369,0.30287 1.314045,0.85856 1.783719,1.23486 0.469677,0.37629 0.886055,0.67561 0.92529,0.66515 0.03922,-0.0104 0.927881,-0.74636 1.974774,-1.63534 z m -22.674488,-3.13813 c 0.585563,-0.13013 0.613762,-0.15157 0.613362,-0.46634 -4.44e-4,-0.32449 -1.243843,-6.57339 -1.323938,-6.65349 -0.173686,-0.17369 -4.184776,1.1216 -5.459655,1.76306 l -0.796789,0.40091 0.781891,1.27921 c 0.43004,0.70357 1.225161,2.05343 1.766936,2.9997 l 0.985047,1.72049 1.409682,-0.45357 c 0.775326,-0.24946 1.685885,-0.51495 2.023464,-0.58997 z m 16.14511,-1.94234 c 0.939355,-1.59767 1.707916,-2.94764 1.707916,-2.99993 0,-0.13612 -1.871654,-0.95838 -3.281702,-1.44172 -1.214472,-0.41631 -2.728439,-0.82215 -2.796444,-0.74963 -0.04799,0.0512 -1.219756,6.24111 -1.258047,6.64574 -0.02877,0.30399 -0.01537,0.3119 0.937604,0.55375 0.531731,0.13495 1.372343,0.38902 1.86803,0.5646 0.495683,0.17559 0.949275,0.32212 1.007989,0.32564 0.05871,0.004 0.875303,-1.30079 1.814654,-2.89845 z m -8.486214,1.24875 c 1.2e-5,-0.002 0.141496,-0.7708 0.314408,-1.70791 0.172912,-0.93712 0.340979,-1.84795 0.373476,-2.02408 0.03252,-0.17613 0.182438,-0.98552 0.333193,-1.79866 0.150755,-0.81313 0.244305,-1.50821 0.207886,-1.54463 -0.0741,-0.0741 -4.966682,-0.0972 -6.005756,-0.0283 -0.366935,0.0243 -0.667153,0.076 -0.667153,0.11481 0,0.13854 1.066842,6.04126 1.177058,6.51252 l 0.112341,0.48035 h 2.077263 c 1.142493,0 2.077272,-0.002 2.077284,-0.004 z"
       id="path144"
       sodipodi:nodetypes="cscsssssssssccccsssccscsccssssssssscsscssscsccsssssscsssssssssssscsccscsssccccsccscccsssssssscsccccssssssssssssscsssssssscssssscccsssssssssscscssssssssssssccsssssssssssssscsccscsssssscsssscsscscccccsssssssscsssssssssssccssssscsscsssssssssscssscsssscssssssscscssssssssssssccssssscssssccsssscssscssccsssscsscssssscssccssssssccscssssscsssssscssscsssssssssscsssssscsssssscssscsssssssssscscssscsscsssssssscsscsscssssssssscssscssssscsss" />
    <text
       xml:space="preserve"
       style="font-style:normal;font-weight:normal;font-size:14.1111px;line-height:1.25;font-family:sans-serif;fill:#000000;fill-opacity:1;stroke:none;stroke-width:0.264583"
       x="-29.122025"
       y="241.73859"
       id="text8446"><tspan
         sodipodi:role="line"
         id="tspan8444"
         style="font-style:normal;font-variant:normal;font-weight:bold;font-stretch:normal;font-size:14.1111px;font-family:sans-serif;-inkscape-font-specification:'sans-serif Bold';stroke-width:0.264583"
         x="-29.122025"
         y="241.73859">CHANTIC</tspan></text>
  </g>
</svg>
